<?xml version="1.0" encoding="utf-8"?>
<!-- Generator: Adobe Illustrator 26.0.1, SVG Export Plug-In . SVG Version: 6.00 Build 0)  -->
<svg version="1.1" id="Layer_1" focusable="false" xmlns="http://www.w3.org/2000/svg" xmlns:xlink="http://www.w3.org/1999/xlink"
	 x="0px" y="0px" viewBox="0 0 640 512" style="enable-background:new 0 0 640 512;" xml:space="preserve">
<style type="text/css">
	.st0{fill:#39B54A;}
</style>
<path class="st0" d="M255,261.6c6.2,6.2,16.4,6.2,22.6,0l11.3-11.3c6.2-6.2,6.2-16.4,0-22.6L253.2,192l35.7-35.7
	c6.2-6.2,6.2-16.4,0-22.6l-11.3-11.3c-6.2-6.2-16.4-6.2-22.6,0l-58.3,58.3c-6.2,6.2-6.2,16.4,0,22.6L255,261.6z M351,250.3
	l11.3,11.3c6.2,6.2,16.4,6.2,22.6,0l58.3-58.3c6.2-6.2,6.2-16.4,0-22.6L385,122.4c-6.2-6.2-16.4-6.2-22.6,0L351,133.7
	c-6.2,6.2-6.2,16.4,0,22.6l35.7,35.7L351,227.7C344.8,234,344.8,244.1,351,250.3L351,250.3z M624,416H381.5
	c-0.7,19.8-14.7,32-32.7,32H288c-18.7,0-33-17.5-32.8-32H16c-8.8,0-16,7.2-16,16v16c0,35.2,28.8,64,64,64h512c35.2,0,64-28.8,64-64
	v-16C640,423.2,632.8,416,624,416z M576,48c0-26.4-21.6-48-48-48H112C85.6,0,64,21.6,64,48v336h512V48z M512,320H128V64h384V320z"/>
</svg>
