<?xml version="1.0" encoding="utf-8"?>
<!-- Generator: Adobe Illustrator 26.0.1, SVG Export Plug-In . SVG Version: 6.00 Build 0)  -->
<svg version="1.1" id="Layer_1" focusable="false" xmlns="http://www.w3.org/2000/svg" xmlns:xlink="http://www.w3.org/1999/xlink"
	 x="0px" y="0px" viewBox="0 0 384 512" style="enable-background:new 0 0 384 512;" xml:space="preserve">
<style type="text/css">
	.st0{fill:#39B54A;}
</style>
<path class="st0" d="M352,0H32C14.3,0,0,14.3,0,32v224h384V32C384,14.3,369.7,0,352,0z M0,320c0,35.4,28.7,64,64,64h64v64
	c0,35.4,28.7,64,64,64s64-28.6,64-64v-64h64c35.3,0,64-28.6,64-64v-32H0V320z M192,424c13.2,0,24,10.7,24,24c0,13.2-10.8,24-24,24
	s-24-10.8-24-24C168,434.7,178.8,424,192,424z"/>
</svg>
