<?xml version="1.0" encoding="utf-8"?>
<!-- Generator: Adobe Illustrator 26.0.1, SVG Export Plug-In . SVG Version: 6.00 Build 0)  -->
<svg version="1.1" id="Layer_1" focusable="false" xmlns="http://www.w3.org/2000/svg" xmlns:xlink="http://www.w3.org/1999/xlink"
	 x="0px" y="0px" viewBox="0 0 640 512" style="enable-background:new 0 0 640 512;" xml:space="preserve">
<style type="text/css">
	.st0{fill:#39B54A;}
</style>
<path class="st0" d="M368,32h-96c-17.7,0-32,14.3-32,32v96c0,17.7,14.3,32,32,32h96c17.7,0,32-14.3,32-32V64
	C400,46.3,385.7,32,368,32z M208,88h-84.8C113.8,64.6,90.8,48,64,48C28.7,48,0,76.7,0,112s28.7,64,64,64c26.8,0,49.8-16.6,59.2-40
	H203c-55.4,32.5-95.9,87.3-109.5,152h49.4c11.3-41.6,36.8-77.2,71-101.6c-3.7-8.1-5.9-17-5.9-26.4V88z M160,320H64
	c-17.7,0-32,14.3-32,32v96c0,17.7,14.3,32,32,32h96c17.7,0,32-14.3,32-32v-96C192,334.3,177.7,320,160,320z M576,48
	c-26.8,0-49.8,16.6-59.2,40H432v72c0,9.4-2.2,18.4-5.9,26.4c34.3,24.4,59.7,59.9,71,101.6h49.4c-13.7-64.7-54.2-119.5-109.5-152
	h79.7c9.5,23.4,32.4,40,59.2,40c35.3,0,64-28.6,64-64S611.3,48,576,48z M576,320h-96c-17.7,0-32,14.3-32,32v96c0,17.7,14.3,32,32,32
	h96c17.7,0,32-14.3,32-32v-96C608,334.3,593.7,320,576,320z"/>
</svg>
